<svg xmlns="http://www.w3.org/2000/svg" xmlns:xlink="http://www.w3.org/1999/xlink" width="500" height="500" viewBox="0 0 500 500">
  <defs>
    <clipPath id="clip-Custom_Size_1">
      <rect width="500" height="500"/>
    </clipPath>
  </defs>
  <g id="Custom_Size_1" data-name="Custom Size – 1" clipPath="url(#clip-Custom_Size_1)">
    <g id="java-seeklogo.com" transform="translate(65.102 -0.371)">
      <path id="Path_1" data-name="Path 1" d="M89.987,267.473s-19.107,11.111,13.6,14.871c39.621,4.52,59.871,3.872,103.534-4.392a180.134,180.134,0,0,0,27.511,13.432c-97.881,41.95-221.523-2.43-144.643-23.911" transform="translate(29.294 119.576)" fill="#fff"/>
      <path id="Path_2" data-name="Path 2" d="M82.614,229.659s-21.43,15.863,11.3,19.249c42.325,4.366,75.749,4.724,133.587-6.414a59.289,59.289,0,0,0,20.579,12.545c-118.343,34.605-250.157,2.729-165.464-25.38" transform="translate(24.706 102.648)" fill="#fff"/>
      <path id="Path_3" data-name="Path 3" d="M150.783,207.866c24.118,27.767-6.337,52.754-6.337,52.754s61.239-31.613,33.115-71.2C151.293,152.5,131.15,134.158,240.2,70.914c0,0-171.17,42.75-89.416,136.952" transform="translate(57.368 31.581)" fill="#fff"/>
      <path id="Path_4" data-name="Path 4" d="M337.606,296.749s14.14,11.651-15.572,20.664c-56.5,17.115-235.151,22.284-284.78.682-17.84-7.761,15.615-18.532,26.139-20.792,10.975-2.38,17.247-1.937,17.247-1.937C60.8,281.39-47.6,322.81,25.579,334.673c199.567,32.364,363.792-14.574,312.027-37.923" transform="translate(0 130.79)" fill="#fff"/>
      <path id="Path_5" data-name="Path 5" d="M116.051,190.5s-90.874,21.584-32.181,29.422c24.782,3.318,74.185,2.567,120.2-1.288,37.608-3.172,75.371-9.917,75.371-9.917s-13.261,5.679-22.855,12.23c-92.281,24.27-270.551,12.979-219.229-11.846,43.4-20.98,78.693-18.6,78.693-18.6" transform="translate(12.417 85.083)" fill="#fff"/>
      <path id="Path_6" data-name="Path 6" d="M202.089,283.094c93.808-48.746,50.435-95.591,20.161-89.28a70.206,70.206,0,0,0-10.729,2.883,17.093,17.093,0,0,1,8.016-6.183c59.891-21.056,105.952,62.1-19.334,95.037a8.161,8.161,0,0,0,1.885-2.457" transform="translate(89.396 83.614)" fill="#fff"/>
      <path id="Path_7" data-name="Path 7" d="M198.181.371s51.952,51.97-49.275,131.885c-81.174,64.105-18.51,100.657-.034,142.418-47.382-42.75-82.155-80.384-58.827-115.41C124.286,107.85,219.142,82.922,198.181.371" transform="translate(36.748 0)" fill="#fff"/>
      <path id="Path_8" data-name="Path 8" d="M117.128,358.83c90.044,5.764,228.317-3.2,231.591-45.8,0,0-6.295,16.152-74.416,28.979-76.854,14.463-171.643,12.775-227.864,3.505,0,0,11.509,9.525,70.689,13.32" transform="translate(20.559 139.97)" fill="#fff"/>
    </g>
  </g>
</svg>
