<svg xmlns="http://www.w3.org/2000/svg" width="200" height="200" viewBox="0 0 200 200">
  <defs>
    <clipPath id="clip-Custom_Size_1">
      <rect width="500" height="500"/>
    </clipPath>
  </defs>
  <g id="Custom_Size_1" data-name="Custom Size – 1" clipPath="url(#clip-Custom_Size_1)">
    <path id="Exclusion_1" data-name="Exclusion 1" d="M250,500a251.849,251.849,0,0,1-50.384-5.079A248.63,248.63,0,0,1,110.223,457.3,250.73,250.73,0,0,1,19.646,347.311,248.744,248.744,0,0,1,5.079,300.384a252.44,252.44,0,0,1,0-100.767A248.632,248.632,0,0,1,42.7,110.223,250.729,250.729,0,0,1,152.689,19.646,248.741,248.741,0,0,1,199.616,5.079a252.44,252.44,0,0,1,100.767,0A248.632,248.632,0,0,1,389.778,42.7a250.73,250.73,0,0,1,90.577,109.993,248.734,248.734,0,0,1,14.567,46.928,252.44,252.44,0,0,1,0,100.767A248.63,248.63,0,0,1,457.3,389.778a250.732,250.732,0,0,1-109.993,90.577,248.736,248.736,0,0,1-46.928,14.567A251.846,251.846,0,0,1,250,500Zm6.95-312.244a122.575,122.575,0,0,0-28.447,3.13,88.018,88.018,0,0,0-23.82,9.39,81.219,81.219,0,0,0-18.928,15.133,84.726,84.726,0,0,0-13.77,20.361,106.089,106.089,0,0,0-8.393,25.117,146.881,146.881,0,0,0-2.8,29.4v24.592a146.966,146.966,0,0,0,2.784,29.345,105.735,105.735,0,0,0,8.35,25.039,84.006,84.006,0,0,0,13.72,20.279,80.788,80.788,0,0,0,18.893,15.065,88.009,88.009,0,0,0,23.842,9.343,124.024,124.024,0,0,0,28.567,3.114,119.4,119.4,0,0,0,24.273-2.383,95.621,95.621,0,0,0,21.482-7.149,84.376,84.376,0,0,0,18-11.42,75.594,75.594,0,0,0,13.817-15.2,68.659,68.659,0,0,0,8.952-18.46,78.692,78.692,0,0,0,3.4-21.208v-6.429H296.018a49.764,49.764,0,0,1-1.61,10.4,41.863,41.863,0,0,1-3.7,9.219,35.078,35.078,0,0,1-13.191,13.6,34.594,34.594,0,0,1-9.265,3.729,45.572,45.572,0,0,1-10.886,1.243,44.129,44.129,0,0,1-12.406-1.675,35.07,35.07,0,0,1-10.439-5.024,36.7,36.7,0,0,1-8.335-8.257,48.669,48.669,0,0,1-6.093-11.374,70.883,70.883,0,0,1-3.729-14.366,111.669,111.669,0,0,1-1.243-17.234V290.357a112.21,112.21,0,0,1,1.257-17.377,71.073,71.073,0,0,1,3.772-14.47,50.084,50.084,0,0,1,6.136-11.473,37.771,37.771,0,0,1,8.349-8.386,34.84,34.84,0,0,1,10.411-5.131,42.763,42.763,0,0,1,12.32-1.711,43.826,43.826,0,0,1,10.808,1.28,34.3,34.3,0,0,1,9.258,3.839A35.852,35.852,0,0,1,284.99,243a36.989,36.989,0,0,1,5.695,7.964,43.93,43.93,0,0,1,3.716,9.516,52.506,52.506,0,0,1,1.617,10.726h50.855v-6.216a83.686,83.686,0,0,0-2.054-16.623,71.593,71.593,0,0,0-5.254-15,74.247,74.247,0,0,0-18.841-24.427,79.989,79.989,0,0,0-13.055-9.046,91.064,91.064,0,0,0-15.192-6.662,102.331,102.331,0,0,0-17.012-4.1A122.088,122.088,0,0,0,256.95,187.756Zm46.267-46.892a34.923,34.923,0,0,0,1.925,11.519,28.759,28.759,0,0,0,5.864,9.882,27.579,27.579,0,0,0,10.054,6.885,37.775,37.775,0,0,0,14.426,2.528,42.919,42.919,0,0,0,13.733-2.046,28.671,28.671,0,0,0,10.439-6.138,25.623,25.623,0,0,0,6.595-10.141,41.254,41.254,0,0,0,2.2-14.052V78.689H346.424v60.73c0,4.091-.893,7.3-2.655,9.536a8.13,8.13,0,0,1-3.453,2.529,13.731,13.731,0,0,1-5.047.843,11.228,11.228,0,0,1-5.743-1.431,9.883,9.883,0,0,1-3.8-3.991,13.411,13.411,0,0,1-1.421-6.04H303.217Zm-126.6-63.811A52.833,52.833,0,0,0,164.7,78.331a38.177,38.177,0,0,0-10.044,3.831,34.3,34.3,0,0,0-8.032,6.194,35.136,35.136,0,0,0-5.883,8.361,42.338,42.338,0,0,0-3.606,10.329,57.923,57.923,0,0,0-1.2,12.095v10.626a56.94,56.94,0,0,0,1.2,11.977,42.334,42.334,0,0,0,3.606,10.282,35.115,35.115,0,0,0,5.883,8.354,34.328,34.328,0,0,0,8.032,6.19A38.165,38.165,0,0,0,164.7,170.4a56.406,56.406,0,0,0,23.871,0,37.989,37.989,0,0,0,10.039-3.832,34.213,34.213,0,0,0,8.01-6.19,35.029,35.029,0,0,0,5.861-8.354,42.441,42.441,0,0,0,3.59-10.282,57.179,57.179,0,0,0,1.2-11.977V119.14a57.821,57.821,0,0,0-1.2-12.057,42.294,42.294,0,0,0-3.59-10.3,35.229,35.229,0,0,0-5.861-8.356,34.569,34.569,0,0,0-8.01-6.22,37.787,37.787,0,0,0-10.039-3.864A52.575,52.575,0,0,0,176.619,77.054Zm51.469,1.635h0V170h41.066a41.267,41.267,0,0,0,16.114-3.034,26.617,26.617,0,0,0,11.406-8.818,21.163,21.163,0,0,0,3.162-6.405,26.624,26.624,0,0,0,1.054-7.645,21.862,21.862,0,0,0-3.037-11.919,20.663,20.663,0,0,0-7.757-7.269,24.942,24.942,0,0,0-9.853-2.9v-.99a22.382,22.382,0,0,0,8.111-3.358,18.3,18.3,0,0,0,5.926-6.615,20.705,20.705,0,0,0,2.237-9.925,22.166,22.166,0,0,0-1.923-9.42,19.106,19.106,0,0,0-5.768-7.089A26.844,26.844,0,0,0,279.9,80.17a40.81,40.81,0,0,0-11.385-1.481H228.088Zm33.674,75.741H249.854V129.987h14.115a19.24,19.24,0,0,1,8.093,1.516,10.778,10.778,0,0,1,4.9,4.3,12.689,12.689,0,0,1,1.634,6.522,12.247,12.247,0,0,1-.987,5.013,10.506,10.506,0,0,1-2.96,3.84,13.16,13.16,0,0,1-5.195,2.441A31.889,31.889,0,0,1,261.762,154.43Zm-85.143-.625a17.153,17.153,0,0,1-9.542-2.673,17.618,17.618,0,0,1-6.413-8.019,33.586,33.586,0,0,1-2.314-13.261V118.879a33.408,33.408,0,0,1,2.314-13.25,17.769,17.769,0,0,1,6.413-8.007,18.2,18.2,0,0,1,19.063,0,17.826,17.826,0,0,1,6.392,8.007,33.429,33.429,0,0,1,2.312,13.25v10.974a33.606,33.606,0,0,1-2.312,13.261,17.673,17.673,0,0,1-6.392,8.019A17.049,17.049,0,0,1,176.619,153.805Zm83.9-37.974H249.854V94.259h13.082c3.847,0,6.863.968,8.966,2.878a9.991,9.991,0,0,1,3.169,7.747,10.742,10.742,0,0,1-1.528,5.751,9.966,9.966,0,0,1-4.731,3.83A21.446,21.446,0,0,1,260.518,115.832Z" fill="#fff"/>
  </g>
</svg>
